<?xml version="1.0" encoding="UTF-8"?> <svg xmlns="http://www.w3.org/2000/svg" width="34" height="20" viewBox="0 0 34 20" fill="none"> <path d="M33.8745 10C33.8745 15.5026 29.4301 20 23.8745 20C18.3719 20 13.8745 15.5026 13.8745 10C13.8745 4.49735 18.319 0 23.8216 0C29.4301 0 33.8745 4.49735 33.8745 10Z" fill="#F7981D"></path> <path d="M10.4357 0C4.98595 0.05291 0.541504 4.49735 0.541504 10C0.541504 15.5026 4.98595 20 10.5415 20C13.1341 20 15.4621 18.9947 17.2611 17.4074C17.6314 17.0899 17.9489 16.7196 18.2664 16.3492H16.2029C15.9383 16.0317 15.6738 15.6614 15.4621 15.3439H19.0071C19.2188 15.0265 19.4304 14.6561 19.5891 14.2857H14.8801C14.7214 13.9683 14.5627 13.5979 14.4568 13.2275H19.9595C20.277 12.2222 20.4886 11.164 20.4886 10.0529C20.4886 9.31217 20.3828 8.62434 20.277 7.93651H14.1394C14.1923 7.56614 14.2981 7.24868 14.4039 6.87831H19.9066C19.8008 6.50794 19.642 6.13757 19.4833 5.82011H14.8272C14.9859 5.44973 15.1976 5.13227 15.4092 4.7619H18.9542C18.7426 4.39153 18.478 4.02116 18.1605 3.7037H16.2029C16.5203 3.33333 16.8378 3.01587 17.2082 2.69841C15.4621 1.0582 13.0812 0.10582 10.4886 0.10582C10.4886 -1.02495e-07 10.4886 0 10.4357 0Z" fill="#E52836"></path> <path d="M14.0857 12.5389L14.2444 11.6394C14.1915 11.6394 14.0857 11.6923 13.9798 11.6923C13.6095 11.6923 13.5566 11.4807 13.6095 11.3749L13.9269 9.52302H14.5089L14.6677 8.51773H14.1386L14.2444 7.88281H13.1862C13.1862 7.88281 12.5513 11.3749 12.5513 11.7982C12.5513 12.4331 12.9216 12.6976 13.3978 12.6976C13.7153 12.6976 13.9798 12.5918 14.0857 12.5389Z" fill="white"></path> <path d="M14.4561 10.8461C14.4561 12.3276 15.4613 12.698 16.3079 12.698C17.1016 12.698 17.419 12.5393 17.419 12.5393L17.6307 11.534C17.6307 11.534 17.0486 11.7985 16.5195 11.7985C15.3555 11.7985 15.5672 10.952 15.5672 10.952H17.7365C17.7365 10.952 17.8952 10.2641 17.8952 9.99958C17.8952 9.31175 17.5248 8.46519 16.3608 8.46519C15.2497 8.35937 14.4561 9.52339 14.4561 10.8461ZM16.3079 9.31175C16.8899 9.31175 16.7841 9.99958 16.7841 10.0525H15.6201C15.6201 9.99958 15.7259 9.31175 16.3079 9.31175Z" fill="white"></path> <path d="M23.0282 12.5395L23.2399 11.3755C23.2399 11.3755 22.7108 11.64 22.3404 11.64C21.5996 11.64 21.2822 11.058 21.2822 10.4231C21.2822 9.15326 21.9171 8.46543 22.6578 8.46543C23.1869 8.46543 23.6102 8.78289 23.6102 8.78289L23.769 7.67178C23.769 7.67178 23.134 7.40723 22.552 7.40723C21.3351 7.40723 20.1182 8.46543 20.1182 10.476C20.1182 11.7988 20.7531 12.6982 22.0229 12.6982C22.4462 12.6982 23.0282 12.5395 23.0282 12.5395Z" fill="white"></path> <path d="M8.26644 8.35986C7.5257 8.35986 6.9966 8.5715 6.9966 8.5715L6.83787 9.47097C6.83787 9.47097 7.31406 9.25933 8.00189 9.25933C8.37226 9.25933 8.68972 9.31224 8.68972 9.6297C8.68972 9.84134 8.63681 9.89425 8.63681 9.89425C8.63681 9.89425 8.31935 9.89425 8.16062 9.89425C7.26115 9.89425 6.25586 10.2646 6.25586 11.4816C6.25586 12.4339 6.89078 12.6456 7.26115 12.6456C8.00189 12.6456 8.31935 12.1694 8.37226 12.1694L8.31935 12.5927H9.27173L9.69501 9.68261C9.69501 8.41277 8.63681 8.35986 8.26644 8.35986ZM8.47808 10.7408C8.47808 10.8995 8.37226 11.7461 7.73734 11.7461C7.41988 11.7461 7.31406 11.4816 7.31406 11.3228C7.31406 11.0583 7.47279 10.6879 8.26644 10.6879C8.42517 10.7408 8.47808 10.7408 8.47808 10.7408Z" fill="white"></path> <path d="M10.6998 12.6453C10.9644 12.6453 12.2871 12.6982 12.2871 11.2696C12.2871 9.94685 11.0173 10.2114 11.0173 9.6823C11.0173 9.41775 11.2289 9.31193 11.5993 9.31193C11.758 9.31193 12.3401 9.36484 12.3401 9.36484L12.4988 8.41246C12.4988 8.41246 12.1284 8.30664 11.4935 8.30664C10.6998 8.30664 9.90619 8.6241 9.90619 9.6823C9.90619 10.8992 11.2289 10.7934 11.2289 11.2696C11.2289 11.5871 10.8586 11.64 10.594 11.64C10.1178 11.64 9.64164 11.4812 9.64164 11.4812L9.48291 12.4336C9.53582 12.5394 9.80037 12.6453 10.6998 12.6453Z" fill="white"></path> <path d="M31.8113 7.51318L31.5996 8.94176C31.5996 8.94176 31.1764 8.41265 30.5944 8.41265C29.642 8.41265 28.7954 9.57668 28.7954 10.9523C28.7954 11.7989 29.2187 12.6984 30.1182 12.6984C30.7531 12.6984 31.1235 12.2751 31.1235 12.2751L31.0705 12.6455H32.1287L32.9224 7.56609L31.8113 7.51318ZM31.3351 10.3174C31.3351 10.8994 31.0705 11.6402 30.4885 11.6402C30.1182 11.6402 29.9065 11.3227 29.9065 10.7936C29.9065 9.94705 30.2769 9.41795 30.7531 9.41795C31.1235 9.41795 31.3351 9.6825 31.3351 10.3174Z" fill="white"></path> <path d="M2.49894 12.5925L3.13386 8.78303L3.23968 12.5925H3.98042L5.35609 8.78303L4.77408 12.5925H5.88519L6.73175 7.51318H4.98572L3.92751 10.6349L3.8746 7.51318H2.34021L1.49365 12.5925H2.49894Z" fill="white"></path> <path d="M18.9008 12.5923C19.2183 10.8463 19.2712 9.41771 20.0119 9.68226C20.1178 8.99443 20.2765 8.72988 20.3823 8.46533C20.3823 8.46533 20.3294 8.46533 20.1707 8.46533C19.6945 8.46533 19.3241 9.10025 19.3241 9.10025L19.4299 8.51824H18.4246L17.7368 12.6452H18.9008V12.5923Z" fill="white"></path> <path d="M25.4632 8.35986C24.7225 8.35986 24.1934 8.5715 24.1934 8.5715L24.0346 9.47097C24.0346 9.47097 24.5108 9.25933 25.1987 9.25933C25.569 9.25933 25.8865 9.31224 25.8865 9.6297C25.8865 9.84134 25.8336 9.89425 25.8336 9.89425C25.8336 9.89425 25.5161 9.89425 25.3574 9.89425C24.4579 9.89425 23.4526 10.2646 23.4526 11.4816C23.4526 12.4339 24.0876 12.6456 24.4579 12.6456C25.1987 12.6456 25.5161 12.1694 25.569 12.1694L25.5161 12.5927H26.4685L26.8918 9.68261C26.9447 8.41277 25.8336 8.35986 25.4632 8.35986ZM25.7278 10.7408C25.7278 10.8995 25.6219 11.7461 24.987 11.7461C24.6696 11.7461 24.5637 11.4816 24.5637 11.3228C24.5637 11.0583 24.7225 10.6879 25.5161 10.6879C25.6749 10.7408 25.6749 10.7408 25.7278 10.7408Z" fill="white"></path> <path d="M27.789 12.5923C28.1065 10.8463 28.1594 9.41771 28.9001 9.68226C29.006 8.99443 29.1647 8.72988 29.2705 8.46533C29.2705 8.46533 29.2176 8.46533 29.0589 8.46533C28.5827 8.46533 28.2123 9.10025 28.2123 9.10025L28.3181 8.51824H27.3128L26.625 12.6452H27.789V12.5923Z" fill="white"></path> </svg> 