<?xml version="1.0" encoding="UTF-8"?> <svg xmlns="http://www.w3.org/2000/svg" width="42" height="13" viewBox="0 0 42 13" fill="none"> <path d="M16.9804 0L14.8955 12.9739H18.2279L20.3115 0C20.3115 0 16.9804 0 16.9804 0ZM27.0321 5.28486C25.8676 4.70979 25.1537 4.32166 25.1537 3.73349C25.1679 3.19871 25.7574 2.65083 27.0737 2.65083C28.1563 2.62363 28.9521 2.87807 29.5558 3.13122L29.8582 3.2662L30.3113 0.551722C29.653 0.297289 28.6094 0.0169426 27.3203 0.0169426C24.0294 0.0169426 21.7122 1.72792 21.6978 4.17501C21.6706 5.98081 23.3568 6.98288 24.6188 7.58401C25.9079 8.20066 26.3467 8.60046 26.3467 9.14834C26.3324 9.98952 25.3043 10.3776 24.345 10.3776C23.0157 10.3776 22.3017 10.1777 21.2177 9.70903L20.7789 9.50913L20.3129 12.3301C21.0957 12.6781 22.5353 12.9843 24.0296 13C27.5269 13 29.8025 11.3149 29.8311 8.70696C29.8425 7.27633 28.9534 6.18057 27.0321 5.28486ZM38.8545 0.0401508H36.2763C35.4818 0.0401508 34.8781 0.268671 34.5341 1.08394L29.5841 12.9739H33.0814L34.0446 10.3997H37.9573L38.4571 12.9843H41.5416L38.8545 0.0401508ZM35.0145 7.80185C35.082 7.8084 36.3568 3.59965 36.3568 3.59965L37.372 7.80185C37.372 7.80185 35.6727 7.80185 35.0145 7.80185ZM12.111 0L8.84605 8.8146L8.49039 7.07628C7.8867 5.07058 5.99404 2.89102 3.88184 1.80837L6.87153 12.961H10.3974L15.6369 0.00142302H12.111V0Z" fill="#2394BC"></path> <path d="M7.3918 1.67215C7.13736 0.682895 6.32594 0.0157028 5.22392 0.00146484H0.0532501L0 0.241517C4.03348 1.2359 7.41899 4.29564 8.51731 7.17371L7.3918 1.67215Z" fill="#EFC75E"></path> </svg> 